<svg xmlns="http://www.w3.org/2000/svg" viewBox="0 0 800 500" fill="none">
  <rect width="800" height="500" rx="12" fill="#f4f4f5"/>
  <rect x="0" y="0" width="800" height="40" rx="12" fill="#e4e4e7"/>
  <rect x="0" y="20" width="800" height="20" fill="#e4e4e7"/>
  <circle cx="20" cy="20" r="5" fill="#ff5f57"/>
  <circle cx="38" cy="20" r="5" fill="#febc2e"/>
  <circle cx="56" cy="20" r="5" fill="#28c840"/>
  <!-- 搜索栏 -->
  <rect x="24" y="60" width="752" height="40" rx="8" fill="#ffffff" stroke="#e4e4e7" stroke-width="1"/>
  <text x="44" y="85" font-family="system-ui" font-size="13" fill="#a1a1aa">搜索智能体...</text>
  <!-- 智能体卡片网格 -->
  <rect x="24" y="116" width="236" height="160" rx="12" fill="#ffffff" stroke="#e4e4e7" stroke-width="1"/>
  <rect x="276" y="116" width="236" height="160" rx="12" fill="#ffffff" stroke="#e4e4e7" stroke-width="1"/>
  <rect x="528" y="116" width="236" height="160" rx="12" fill="#ffffff" stroke="#e4e4e7" stroke-width="1"/>
  <!-- 卡片1 内容 -->
  <circle cx="142" cy="156" r="24" fill="#dbeafe"/>
  <path d="M135 156 h14 M142 149 v14" stroke="#2563eb" stroke-width="2.5" stroke-linecap="round"/>
  <text x="142" y="200" text-anchor="middle" font-family="system-ui" font-size="15" font-weight="600" fill="#0a0a0a">英语口语助手</text>
  <text x="142" y="220" text-anchor="middle" font-family="system-ui" font-size="12" fill="#a1a1aa">Coze · 在线</text>
  <rect x="80" y="238" width="124" height="24" rx="12" fill="#dcfce7"/>
  <text x="142" y="254" text-anchor="middle" font-family="system-ui" font-size="11" fill="#16a34a">已接入</text>
  <!-- 卡片2 -->
  <circle cx="394" cy="156" r="24" fill="#f3e8ff"/>
  <path d="M382 152 L394 142 L406 152 L406 164 L382 164 Z" stroke="#7c3aed" stroke-width="2" fill="none"/>
  <text x="394" y="200" text-anchor="middle" font-family="system-ui" font-size="15" font-weight="600" fill="#0a0a0a">数学解题大师</text>
  <text x="394" y="220" text-anchor="middle" font-family="system-ui" font-size="12" fill="#a1a1aa">智谱清言 · 在线</text>
  <rect x="332" y="238" width="124" height="24" rx="12" fill="#dcfce7"/>
  <text x="394" y="254" text-anchor="middle" font-family="system-ui" font-size="11" fill="#16a34a">已接入</text>
  <!-- 卡片3 -->
  <circle cx="646" cy="156" r="24" fill="#fce7f3"/>
  <path d="M646 142 v22 M634 158 h24" stroke="#ec4899" stroke-width="2" stroke-linecap="round"/>
  <text x="646" y="200" text-anchor="middle" font-family="system-ui" font-size="15" font-weight="600" fill="#0a0a0a">作文批改助手</text>
  <text x="646" y="220" text-anchor="middle" font-family="system-ui" font-size="12" fill="#a1a1aa">文心 · 离线</text>
  <rect x="584" y="238" width="124" height="24" rx="12" fill="#fef2f2"/>
  <text x="646" y="254" text-anchor="middle" font-family="system-ui" font-size="11" fill="#dc2626">未连接</text>
  <!-- 底部添加按钮 -->
  <rect x="24" y="292" width="752" height="48" rx="10" fill="#ffffff" stroke="#e4e4e7" stroke-width="1" stroke-dasharray="6 4"/>
  <text x="400" y="322" text-anchor="middle" font-family="system-ui" font-size="14" fill="#a1a1aa">+ 添加新智能体</text>
  <!-- 活动列表 -->
  <rect x="24" y="356" width="752" height="124" rx="12" fill="#ffffff" stroke="#e4e4e7" stroke-width="1"/>
  <text x="44" y="382" font-family="system-ui" font-size="14" font-weight="600" fill="#0a0a0a">最近对话</text>
  <rect x="44" y="394" width="368" height="20" rx="4" fill="#f4f4f5"/>
  <rect x="44" y="420" width="320" height="20" rx="4" fill="#f4f4f5"/>
  <rect x="44" y="446" width="260" height="20" rx="4" fill="#f4f4f5"/>
</svg>