<svg xmlns="http://www.w3.org/2000/svg" viewBox="0 0 800 500" fill="none">
  <rect width="800" height="500" rx="12" fill="#f4f4f5"/>
  <!-- 窗口标题栏 -->
  <rect x="0" y="0" width="800" height="40" rx="12" fill="#e4e4e7"/>
  <rect x="0" y="20" width="800" height="20" fill="#e4e4e7"/>
  <circle cx="20" cy="20" r="5" fill="#ff5f57"/>
  <circle cx="38" cy="20" r="5" fill="#febc2e"/>
  <circle cx="56" cy="20" r="5" fill="#28c840"/>
  <!-- 顶栏 -->
  <rect x="0" y="40" width="800" height="56" fill="#ffffff" stroke="#e4e4e7" stroke-width="1"/>
  <rect x="24" y="52" width="32" height="32" rx="8" fill="#f4f4f5"/>
  <path d="M32 68 h16" stroke="#0a0a0a" stroke-width="2" stroke-linecap="round"/>
  <text x="68" y="74" font-family="system-ui" font-size="16" font-weight="600" fill="#0a0a0a">课堂报告 · 高二(3)班</text>
  <rect x="684" y="52" width="92" height="32" rx="8" fill="#0a0a0a"/>
  <text x="730" y="73" text-anchor="middle" font-family="system-ui" font-size="13" font-weight="500" fill="#ffffff">导出 Word</text>
  <!-- 统计概览 -->
  <rect x="24" y="112" width="176" height="100" rx="10" fill="#ffffff" stroke="#e4e4e7" stroke-width="1"/>
  <text x="112" y="146" text-anchor="middle" font-family="system-ui" font-size="32" font-weight="700" fill="#2563eb">42</text>
  <text x="112" y="168" text-anchor="middle" font-family="system-ui" font-size="12" fill="#a1a1aa">参与学生</text>
  <text x="112" y="184" text-anchor="middle" font-family="system-ui" font-size="11" fill="#10b981">↑ 12% vs 上周</text>
  <rect x="216" y="112" width="176" height="100" rx="10" fill="#ffffff" stroke="#e4e4e7" stroke-width="1"/>
  <text x="304" y="146" text-anchor="middle" font-family="system-ui" font-size="32" font-weight="700" fill="#7c3aed">186</text>
  <text x="304" y="168" text-anchor="middle" font-family="system-ui" font-size="12" fill="#a1a1aa">对话轮次</text>
  <text x="304" y="184" text-anchor="middle" font-family="system-ui" font-size="11" fill="#10b981">↑ 8% vs 上周</text>
  <rect x="408" y="112" width="176" height="100" rx="10" fill="#ffffff" stroke="#e4e4e7" stroke-width="1"/>
  <text x="496" y="146" text-anchor="middle" font-family="system-ui" font-size="32" font-weight="700" fill="#f97316">35′</text>
  <text x="496" y="168" text-anchor="middle" font-family="system-ui" font-size="12" fill="#a1a1aa">平均时长</text>
  <text x="496" y="184" text-anchor="middle" font-family="system-ui" font-size="11" fill="#52525b">持平</text>
  <rect x="600" y="112" width="176" height="100" rx="10" fill="#ffffff" stroke="#e4e4e7" stroke-width="1"/>
  <text x="688" y="146" text-anchor="middle" font-family="system-ui" font-size="32" font-weight="700" fill="#10b981">98%</text>
  <text x="688" y="168" text-anchor="middle" font-family="system-ui" font-size="12" fill="#a1a1aa">活跃度</text>
  <text x="688" y="184" text-anchor="middle" font-family="system-ui" font-size="11" fill="#10b981">持续攀升</text>
  <!-- 图表区域 - 高频词云 -->
  <rect x="24" y="228" width="476" height="200" rx="12" fill="#ffffff" stroke="#e4e4e7" stroke-width="1"/>
  <text x="44" y="256" font-family="system-ui" font-size="14" font-weight="600" fill="#0a0a0a">高频词云</text>
  <text x="28" y="300" font-family="system-ui" font-size="28" font-weight="700" fill="#2563eb">函数</text>
  <text x="85" y="320" font-family="system-ui" font-size="20" font-weight="600" fill="#7c3aed">导数</text>
  <text x="145" y="290" font-family="system-ui" font-size="24" font-weight="700" fill="#ec4899">积分</text>
  <text x="200" y="330" font-family="system-ui" font-size="18" font-weight="500" fill="#f97316">极值</text>
  <text x="260" y="295" font-family="system-ui" font-size="22" font-weight="600" fill="#10b981">单调性</text>
  <text x="330" y="340" font-family="system-ui" font-size="16" fill="#52525b">对称</text>
  <text x="390" y="300" font-family="system-ui" font-size="20" font-weight="500" fill="#2563eb">周期</text>
  <text x="440" y="335" font-family="system-ui" font-size="14" fill="#a1a1aa">数轴</text>
  <text x="268" y="410" font-family="system-ui" font-size="12" fill="#a1a1aa">词频统计 · 共收录 243 条对话</text>
  <!-- 活跃榜 -->
  <rect x="516" y="228" width="260" height="200" rx="12" fill="#ffffff" stroke="#e4e4e7" stroke-width="1"/>
  <text x="536" y="256" font-family="system-ui" font-size="14" font-weight="600" fill="#0a0a0a">活跃榜 TOP5</text>
  <rect x="532" y="272" width="228" height="28" rx="6" fill="#f4f4f5"/>
  <text x="544" y="291" font-family="system-ui" font-size="12" font-weight="600" fill="#f97316">1</text>
  <text x="564" y="291" font-family="system-ui" font-size="13" fill="#0a0a0a">学生 A</text>
  <text x="744" y="291" font-family="system-ui" font-size="12" fill="#52525b">24 条</text>
  <rect x="532" y="304" width="228" height="28" rx="6" fill="#ffffff"/>
  <text x="544" y="323" font-family="system-ui" font-size="12" font-weight="600" fill="#2563eb">2</text>
  <text x="564" y="323" font-family="system-ui" font-size="13" fill="#0a0a0a">学生 C</text>
  <text x="744" y="323" font-family="system-ui" font-size="12" fill="#52525b">18 条</text>
  <rect x="532" y="336" width="228" height="28" rx="6" fill="#ffffff"/>
  <text x="544" y="355" font-family="system-ui" font-size="12" font-weight="600" fill="#7c3aed">3</text>
  <text x="564" y="355" font-family="system-ui" font-size="13" fill="#0a0a0a">学生 D</text>
  <text x="744" y="355" font-family="system-ui" font-size="12" fill="#52525b">15 条</text>
  <rect x="532" y="368" width="228" height="28" rx="6" fill="#ffffff"/>
  <text x="544" y="387" font-family="system-ui" font-size="12" font-weight="600" fill="#a1a1aa">4</text>
  <text x="564" y="387" font-family="system-ui" font-size="13" fill="#0a0a0a">学生 B</text>
  <text x="744" y="387" font-family="system-ui" font-size="12" fill="#52525b">9 条</text>
  <rect x="532" y="400" width="228" height="28" rx="6" fill="#ffffff"/>
  <text x="544" y="419" font-family="system-ui" font-size="12" font-weight="600" fill="#a1a1aa">5</text>
  <text x="564" y="419" font-family="system-ui" font-size="13" fill="#0a0a0a">学生 E</text>
  <text x="744" y="419" font-family="system-ui" font-size="12" fill="#52525b">6 条</text>
</svg>